<svg width="36" height="36" viewBox="0 0 36 36" fill="none" xmlns="http://www.w3.org/2000/svg">
  <defs>
    <linearGradient id="applyr-bg" x1="0" y1="0" x2="1" y2="1" gradientUnits="objectBoundingBox">
      <stop offset="0%" stop-color="#e879f9"/>
      <stop offset="100%" stop-color="#a21caf"/>
    </linearGradient>
    <linearGradient id="applyr-sh" x1="0" y1="0" x2="0" y2="1" gradientUnits="objectBoundingBox">
      <stop offset="0%" stop-color="white" stop-opacity="0.22"/>
      <stop offset="100%" stop-color="white" stop-opacity="0"/>
    </linearGradient>
  </defs>
  <rect width="36" height="36" rx="10" fill="url(#applyr-bg)"/>
  <rect width="36" height="20" rx="10" fill="url(#applyr-sh)"/>
  <path d="M10 8 L21 8 L25 12 L25 28 L10 28 Z" fill="white" opacity="0.95"/>
  <path d="M21 8 L21 12 L25 12 Z" fill="url(#applyr-bg)" opacity="0.45"/>
  <rect x="12.5" y="16" width="8" height="1.4" rx="0.6" fill="url(#applyr-bg)" opacity="0.7"/>
  <rect x="12.5" y="19" width="10" height="1.4" rx="0.6" fill="url(#applyr-bg)" opacity="0.7"/>
  <rect x="12.5" y="22" width="6" height="1.4" rx="0.6" fill="url(#applyr-bg)" opacity="0.7"/>
  <path d="M22.5 23 L23.4 25 L25.4 25.9 L23.4 26.8 L22.5 28 L21.6 26.8 L19.6 25.9 L21.6 25 Z" fill="white" stroke="url(#applyr-bg)" stroke-width="0.6"/>
</svg>
